<?xml version="1.0" encoding="iso-8859-1"?>
<!-- Generator: Adobe Illustrator 21.0.2, SVG Export Plug-In . SVG Version: 6.00 Build 0)  -->
<svg xmlns="http://www.w3.org/2000/svg" xmlns:xlink="http://www.w3.org/1999/xlink" version="1.1" id="Layer_1" x="0px" y="0px" viewBox="0 0 40 40" style="enable-background:new 0 0 40 40;" xml:space="preserve">
<g>
	
		<rect x="29.947" y="8.181" transform="matrix(0.7071 -0.7071 0.7071 0.7071 2.2011 25.5148)" style="fill:#4788C7;" width="3.906" height="3.838"/>
</g>
<rect x="18" y="5" style="fill:#4788C7;" width="4" height="3"/>
<g>
	<path style="fill:#DFF0FE;" d="M20,38.5c-8.547,0-15.5-6.953-15.5-15.5S11.453,7.5,20,7.5S35.5,14.453,35.5,23S28.547,38.5,20,38.5   z"/>
	<g>
		<path style="fill:#4788C7;" d="M20,8c8.271,0,15,6.729,15,15s-6.729,15-15,15S5,31.271,5,23S11.729,8,20,8 M20,7    C11.163,7,4,14.163,4,23s7.163,16,16,16s16-7.163,16-16S28.837,7,20,7L20,7z"/>
	</g>
</g>
<g>
	<path style="fill:#FFFFFF;" d="M20,35.5c-6.893,0-12.5-5.607-12.5-12.5S13.107,10.5,20,10.5S32.5,16.107,32.5,23   S26.893,35.5,20,35.5z"/>
	<g>
		<path style="fill:#4788C7;" d="M20,11c6.617,0,12,5.383,12,12s-5.383,12-12,12S8,29.617,8,23S13.383,11,20,11 M20,10    c-7.18,0-13,5.82-13,13s5.82,13,13,13s13-5.82,13-13S27.18,10,20,10L20,10z"/>
	</g>
</g>
<line style="fill:none;stroke:#4788C7;stroke-linecap:round;stroke-miterlimit:10;" x1="13.5" y1="16.5" x2="20" y2="23"/>
<g>
	<circle style="fill:#4788C7;" cx="20" cy="23" r="1.333"/>
</g>
<g>
	<path style="fill:#DFF0FE;" d="M17,5.5c-0.275,0-0.5-0.225-0.5-0.5V2c0-0.275,0.225-0.5,0.5-0.5h6c0.275,0,0.5,0.225,0.5,0.5v3   c0,0.275-0.225,0.5-0.5,0.5H17z"/>
	<path style="fill:#4788C7;" d="M23,2v3h-6V2H23 M23,1h-6c-0.552,0-1,0.448-1,1v3c0,0.552,0.448,1,1,1h6c0.552,0,1-0.448,1-1V2   C24,1.448,23.552,1,23,1L23,1z"/>
</g>
<g>
	<path style="fill:#DFF0FE;" d="M33.293,12.5c-0.166,0-0.322-0.064-0.439-0.182l-3.172-3.172c-0.242-0.242-0.242-0.637,0-0.879   l1.586-1.586C31.385,6.564,31.541,6.5,31.707,6.5s0.322,0.064,0.439,0.182l3.172,3.172c0.242,0.242,0.242,0.637,0,0.879   l-1.586,1.586C33.615,12.436,33.459,12.5,33.293,12.5z"/>
	<g>
		<path style="fill:#4788C7;" d="M31.707,7c0.033,0,0.062,0.012,0.086,0.036l3.172,3.172C34.988,10.231,35,10.26,35,10.293    c0,0.033-0.012,0.062-0.036,0.086l-1.586,1.586C33.355,11.988,33.326,12,33.293,12c-0.033,0-0.062-0.012-0.086-0.036l-3.172-3.172    C30.012,8.769,30,8.74,30,8.707c0-0.033,0.012-0.062,0.036-0.086l1.586-1.586C31.645,7.012,31.674,7,31.707,7 M31.707,6    c-0.287,0-0.574,0.109-0.793,0.328l-1.586,1.586c-0.438,0.438-0.438,1.148,0,1.586l3.172,3.172C32.719,12.891,33.006,13,33.293,13    c0.287,0,0.574-0.109,0.793-0.328l1.586-1.586c0.438-0.438,0.438-1.148,0-1.586L32.5,6.328C32.281,6.109,31.994,6,31.707,6    L31.707,6z"/>
	</g>
</g>
<g>
</g>
</svg>
